# xmcd
#
# Track frame offsets:
# 150
# 15155
# 29797
# 50305
# 61775
# 75578
# 96688
# 107241
# 121136
# 138331
# 154198
# 175208
# 187758
#
# Disc length: 2710 seconds
#
#
# Revision: 0
# Processed by: cddbd v1.5.1PL0 Copyright (c) Steve Scherf et al.
# Submitted via: FreeRIP 2.60 
#
DISCID=a10a940d
DTITLE=Rob Ickes - Big Time
DYEAR=2004
DGENRE=Bluegrass
TTITLE0=Machine Gun Kelly
TTITLE1=Elzic's Farewell
TTITLE2=Matt Hyland
TTITLE3=Born In A Barn
TTITLE4=The Fatal Shore
TTITLE5=Wayfaring Stranger
TTITLE6=Fiddler's Dream
TTITLE7=I'm Thinking Tonight Of My Blue Eyes
TTITLE8=Like Water
TTITLE9=I Am A Pilgrim
TTITLE10=Lonesome Moolight Waltz
TTITLE11=Lost Indian
TTITLE12=Ireland, Love Of My Heart
EXTD=
EXTT0=
EXTT1=
EXTT2=
EXTT3=
EXTT4=
EXTT5=
EXTT6=
EXTT7=
EXTT8=
EXTT9=
EXTT10=
EXTT11=
EXTT12=
PLAYORDER=
